<?xml version="1.0" standalone="no"?>
<!DOCTYPE svg PUBLIC "-//W3C//DTD SVG 20010904//EN"
 "http://www.w3.org/TR/2001/REC-SVG-20010904/DTD/svg10.dtd">
<svg version="1.0" xmlns="http://www.w3.org/2000/svg"
 width="1024.000000pt" height="1024.000000pt" viewBox="0 0 1024.000000 1024.000000"
 preserveAspectRatio="xMidYMid meet">

<g transform="translate(0.000000,1024.000000) scale(0.100000,-0.100000)"
fill="#000000" stroke="none">
<path d="M4859 8076 c-2 -2 -53 -9 -114 -15 -154 -17 -307 -49 -540 -114 -224
-63 -567 -229 -795 -385 -221 -152 -477 -380 -637 -567 -465 -545 -738 -1231
-771 -1940 -28 -588 89 -1136 353 -1660 252 -501 661 -958 1115 -1246 30 -20
75 -48 99 -63 24 -16 98 -56 165 -90 498 -257 986 -362 1553 -335 92 5 196 13
231 19 34 5 92 15 130 21 212 35 489 122 700 220 46 22 86 39 88 39 2 0 53 27
114 60 924 505 1535 1420 1665 2494 33 268 19 698 -31 961 -64 338 -178 662
-337 954 -102 190 -278 443 -405 586 -419 468 -896 777 -1457 944 -109 33
-321 78 -420 91 -49 6 -117 15 -151 21 -58 9 -546 13 -555 5z m531 -356 c52
-5 124 -15 160 -21 84 -15 309 -68 335 -79 11 -5 38 -14 60 -21 200 -60 505
-215 696 -355 601 -438 995 -1087 1121 -1849 30 -181 33 -678 5 -855 -103
-644 -384 -1199 -831 -1645 -327 -325 -729 -557 -1181 -680 -388 -106 -847
-108 -1245 -6 l-75 19 -3 690 c-1 380 -1 1004 0 1387 l3 696 73 -88 c40 -48
166 -205 280 -348 114 -143 291 -363 393 -490 102 -126 252 -313 333 -415 226
-281 267 -322 386 -384 107 -56 191 -76 318 -76 132 0 196 15 312 71 162 80
288 240 342 436 22 78 22 85 26 1141 l3 1062 183 0 184 0 -131 198 c-71 108
-266 402 -431 652 -166 250 -325 490 -353 533 l-51 78 -208 -313 c-114 -172
-280 -423 -369 -558 -89 -135 -212 -321 -274 -415 l-112 -170 240 -3 241 -2 0
-422 c0 -418 0 -422 -19 -403 -21 21 -358 439 -838 1040 -163 204 -326 403
-362 444 -85 96 -197 170 -321 212 -86 30 -106 33 -215 33 -142 0 -211 -16
-335 -77 -146 -72 -289 -231 -346 -387 -45 -123 -43 -78 -44 -1597 l0 -1443
190 0 190 0 0 1413 c0 1533 -2 1477 54 1566 81 128 257 186 397 130 70 -27
103 -52 152 -114 23 -28 125 -155 226 -281 206 -256 622 -773 992 -1234 313
-390 480 -596 518 -640 l30 -35 1 997 0 998 -175 2 -176 3 111 170 c61 94 119
180 128 193 9 12 85 126 167 252 83 126 153 229 157 227 9 -3 558 -832 558
-843 0 -2 -79 -4 -175 -4 l-175 0 0 -1150 c0 -1146 0 -1149 -21 -1206 -42
-111 -139 -176 -264 -178 -61 -1 -80 4 -138 32 -42 21 -80 49 -102 75 -18 23
-160 200 -315 392 -315 392 -469 584 -580 720 -41 51 -159 197 -261 326 -103
129 -258 322 -344 429 -87 107 -196 243 -243 303 -47 59 -88 107 -91 107 -3 0
-6 -629 -6 -1398 l0 -1397 -22 -71 c-48 -153 -161 -272 -311 -326 -43 -16 -81
-21 -157 -21 -167 -1 -261 48 -420 215 -233 245 -416 520 -545 818 -23 52 -48
109 -55 125 -54 123 -142 452 -164 610 -27 198 -31 260 -31 434 1 324 38 569
135 881 75 243 222 539 380 765 369 528 911 906 1520 1059 308 77 590 98 915
66z"/>
</g>
</svg>
